# xmcd
# Copyright (C) 1995-1998 Ti Kan
#
# Track frame offsets:
#       150
#       21822
#       37106
#       53302
#       71379
#       85990
#       103096
#       120563
#       138277
#       158030
#       175000
#       228829
#
# Disc length: 4038 seconds
#
# Revision: 0
# Processed by: cddbd v1.5.2PL0 Copyright (c) Steve Scherf et al.
# Submitted via: CD-Import v1.0
#
DISCID=8c0fc40c
DTITLE=Cobalt - Domestic
DYEAR=08
DGENRE=
TTITLE0=The Fall
TTITLE1=Natural Born Lovers
TTITLE2=You
TTITLE3=Where Are You
TTITLE4=Waterfalls
TTITLE5=Black Noise
TTITLE6=Endlessness
TTITLE7=Mirage
TTITLE8=Dive
TTITLE9=Silent Tale
TTITLE10=Beautiful
TTITLE11=Data Track
EXTD=
EXTT0=
EXTT1=
EXTT2=
EXTT3=
EXTT4=
EXTT5=
EXTT6=
EXTT7=
EXTT8=
EXTT9=
EXTT10=
EXTT11=
PLAYORDER=
